<?xml version="1.0" encoding="UTF-8"?>
<svg xmlns="http://www.w3.org/2000/svg" xmlns:v="https://vecta.io/nano" width="81" height="94" fill="none">
  <mask id="A" maskUnits="userSpaceOnUse" x="0" y="0" width="81" height="94" fill="#000">
    <path fill="#fff" d="M0 0h81v94H0z"></path>
    <path d="M10.067 29.017a8.05 8.05 0 0 1-6.344-3.076 8.06 8.06 0 0 1 3.015-12.32 8.05 8.05 0 0 1 7.047.204c2.193 1.149 3.736 3.243 4.184 5.678A8.06 8.06 0 0 1 16.08 26.3l5.82 4.755a27.63 27.63 0 0 1 16.489-7.278v-5.726a8.05 8.05 0 0 1-6.303-4.542 8.06 8.06 0 0 1 .469-7.759 8.05 8.05 0 0 1 13.609 0 8.06 8.06 0 0 1 .469 7.759 8.05 8.05 0 0 1-6.304 4.542v5.532h.097a26.76 26.76 0 0 1 18.429 7.375l5.917-4.852a8.06 8.06 0 0 1-1.488-7.62 8.05 8.05 0 0 1 13.16-3.432 8.06 8.06 0 0 1 2.418 7.378c-.509 2.712-2.371 4.974-4.933 5.994a8.05 8.05 0 0 1-7.702-.961l-6.013 4.949h0a24.17 24.17 0 0 1 6.402 16.012l7.469 19.021c.302.84.203 1.773-.27 2.53s-1.268 1.255-2.155 1.351l-4.268.485v6.793c-.026 1.527-.65 2.984-1.739 4.055s-2.554 1.671-4.081 1.671h-3.395.001c-1.029 0-2.016.409-2.744 1.137a3.88 3.88 0 0 0-1.137 2.745v2.814a.97.97 0 0 1-.969.971.97.97 0 0 1-.97-.971v-2.912c0-1.544.613-3.025 1.704-4.117a5.82 5.82 0 0 1 4.116-1.705h3.298a3.88 3.88 0 0 0 3.88-3.785v-7.57a.97.97 0 0 1 .873-.971l5.238-.582a.97.97 0 0 0 .732-.483c.153-.269.169-.594.044-.876l-7.469-19.021c-.059-.121-.092-.253-.097-.388a22.23 22.23 0 0 0-6.014-14.945l-9.603 7.861h.001a10.39 10.39 0 0 1 1.6 7.109c-.342 2.485-1.572 4.762-3.462 6.41s-4.312 2.557-6.819 2.557-4.929-.908-6.819-2.557a10.38 10.38 0 0 1-3.462-6.41 10.39 10.39 0 0 1 1.6-7.109l-9.602-7.861h.001a21.25 21.25 0 0 0-4.559 7.376c-2.134 4.464-.97 14.071 0 21.738.291 2.814.679 5.434.776 7.666v20.38-.001a.97.97 0 1 1-1.94 0v-20.38l-.776-7.473c-.97-8.346-2.134-17.759.194-22.709v.001a23.11 23.11 0 0 1 4.85-7.958l-5.917-4.852a7.95 7.95 0 0 1-4.656 1.553h-.001zm35.403-18.827a6.02 6.02 0 0 0-2.376-4.76c-1.488-1.131-3.418-1.506-5.221-1.013s-3.275 1.796-3.982 3.526a6.02 6.02 0 0 0 .37 5.309c.941 1.615 2.58 2.702 4.434 2.939s3.713-.403 5.03-1.73a6.02 6.02 0 0 0 1.746-4.27zm-35.306 4.852c-1.595 0-3.124.634-4.252 1.763S4.15 19.464 4.15 21.06a6.02 6.02 0 0 0 1.761 4.255c1.128 1.128 2.658 1.762 4.252 1.762s3.124-.634 4.252-1.762a6.02 6.02 0 0 0-.034-8.544c-1.149-1.131-2.703-1.753-4.315-1.727h.097zm66.926 6.017h.001c0-1.596-.634-3.127-1.762-4.255a6.01 6.01 0 0 0-4.252-1.763c-1.595 0-3.124.634-4.252 1.763a6.02 6.02 0 0 0 0 8.509c1.128 1.128 2.658 1.762 4.252 1.762 1.579-.026 3.083-.671 4.19-1.796s1.727-2.641 1.727-4.22h.097zM57.303 32.317c-4.579-4.284-10.608-6.675-16.877-6.696h-.097v11.161c2.821.007 5.517 1.164 7.469 3.203l9.505-7.667zM40.329 55.608c2.238 0 4.385-.889 5.967-2.473s2.472-3.731 2.472-5.971-.889-4.386-2.472-5.97-3.729-2.473-5.967-2.473-4.384.889-5.967 2.473-2.472 3.73-2.472 5.97.889 4.387 2.472 5.971 3.729 2.473 5.967 2.473zm-1.94-18.633V25.718a25.6 25.6 0 0 0-15.034 6.599l9.505 7.764h.001a10.37 10.37 0 0 1 5.528-3.105z"></path>
  </mask>
  <path d="M10.067 29.017a8.05 8.05 0 0 1-6.344-3.076 8.06 8.06 0 0 1 3.015-12.32 8.05 8.05 0 0 1 7.047.204c2.193 1.149 3.736 3.243 4.184 5.678A8.06 8.06 0 0 1 16.08 26.3l5.82 4.755a27.63 27.63 0 0 1 16.489-7.278v-5.726a8.05 8.05 0 0 1-6.303-4.542 8.06 8.06 0 0 1 .469-7.759 8.05 8.05 0 0 1 13.609 0 8.06 8.06 0 0 1 .469 7.759 8.05 8.05 0 0 1-6.304 4.542v5.532h.097a26.76 26.76 0 0 1 18.429 7.375l5.917-4.852a8.06 8.06 0 0 1-1.488-7.62 8.05 8.05 0 0 1 13.16-3.432 8.06 8.06 0 0 1 2.418 7.378c-.509 2.712-2.371 4.974-4.933 5.994a8.05 8.05 0 0 1-7.702-.961l-6.013 4.949h0a24.17 24.17 0 0 1 6.402 16.012l7.469 19.021c.302.84.203 1.773-.27 2.53s-1.268 1.255-2.155 1.351l-4.268.485v6.793c-.026 1.527-.65 2.984-1.739 4.055s-2.554 1.671-4.081 1.671h-3.395.001c-1.029 0-2.016.409-2.744 1.137a3.88 3.88 0 0 0-1.137 2.745v2.814a.97.97 0 0 1-.969.971.97.97 0 0 1-.97-.971v-2.912c0-1.544.613-3.025 1.704-4.117a5.82 5.82 0 0 1 4.116-1.705h3.298a3.88 3.88 0 0 0 3.88-3.785v-7.57a.97.97 0 0 1 .873-.971l5.238-.582a.97.97 0 0 0 .732-.483c.153-.269.169-.594.044-.876l-7.469-19.021c-.059-.121-.092-.253-.097-.388a22.23 22.23 0 0 0-6.014-14.945l-9.603 7.861h.001a10.39 10.39 0 0 1 1.6 7.109c-.342 2.485-1.572 4.762-3.462 6.41s-4.312 2.557-6.819 2.557-4.929-.908-6.819-2.557a10.38 10.38 0 0 1-3.462-6.41 10.39 10.39 0 0 1 1.6-7.109l-9.602-7.861h.001a21.25 21.25 0 0 0-4.559 7.376c-2.134 4.464-.97 14.071 0 21.738.291 2.814.679 5.434.776 7.666v20.38-.001a.97.97 0 1 1-1.94 0v-20.38l-.776-7.473c-.97-8.346-2.134-17.759.194-22.709v.001a23.11 23.11 0 0 1 4.85-7.958l-5.917-4.852a7.95 7.95 0 0 1-4.656 1.553h-.001zm35.403-18.827a6.02 6.02 0 0 0-2.376-4.76c-1.488-1.131-3.418-1.506-5.221-1.013s-3.275 1.796-3.982 3.526a6.02 6.02 0 0 0 .37 5.309c.941 1.615 2.58 2.702 4.434 2.939s3.713-.403 5.03-1.73a6.02 6.02 0 0 0 1.746-4.27zm-35.306 4.852c-1.595 0-3.124.634-4.252 1.763S4.15 19.464 4.15 21.06a6.02 6.02 0 0 0 1.761 4.255c1.128 1.128 2.658 1.762 4.252 1.762s3.124-.634 4.252-1.762a6.02 6.02 0 0 0-.034-8.544c-1.149-1.131-2.703-1.753-4.315-1.727h.097zm66.926 6.017h.001c0-1.596-.634-3.127-1.762-4.255a6.01 6.01 0 0 0-4.252-1.763c-1.595 0-3.124.634-4.252 1.763a6.02 6.02 0 0 0 0 8.509c1.128 1.128 2.658 1.762 4.252 1.762 1.579-.026 3.083-.671 4.19-1.796s1.727-2.641 1.727-4.22h.097zM57.303 32.317c-4.579-4.284-10.608-6.675-16.877-6.696h-.097v11.161c2.821.007 5.517 1.164 7.469 3.203l9.505-7.667zM40.329 55.608c2.238 0 4.385-.889 5.967-2.473s2.472-3.731 2.472-5.971-.889-4.386-2.472-5.97-3.729-2.473-5.967-2.473-4.384.889-5.967 2.473-2.472 3.73-2.472 5.97.889 4.387 2.472 5.971 3.729 2.473 5.967 2.473zm-1.94-18.633V25.718a25.6 25.6 0 0 0-15.034 6.599l9.505 7.764h.001a10.37 10.37 0 0 1 5.528-3.105z" fill="#fff"></path>
  <path d="M10.067 29.017a8.05 8.05 0 0 1-6.344-3.076 8.06 8.06 0 0 1 3.015-12.32 8.05 8.05 0 0 1 7.047.204c2.193 1.149 3.736 3.243 4.184 5.678A8.06 8.06 0 0 1 16.08 26.3l5.82 4.755a27.63 27.63 0 0 1 16.489-7.278v-5.726a8.05 8.05 0 0 1-6.303-4.542 8.06 8.06 0 0 1 .469-7.759 8.05 8.05 0 0 1 13.609 0 8.06 8.06 0 0 1 .469 7.759 8.05 8.05 0 0 1-6.304 4.542v5.532h.097a26.76 26.76 0 0 1 18.429 7.375l5.917-4.852a8.06 8.06 0 0 1-1.488-7.62 8.05 8.05 0 0 1 13.16-3.432 8.06 8.06 0 0 1 2.418 7.378c-.509 2.712-2.371 4.974-4.933 5.994a8.05 8.05 0 0 1-7.702-.961l-6.013 4.949h0a24.17 24.17 0 0 1 6.402 16.012l7.469 19.021c.302.84.203 1.773-.27 2.53s-1.268 1.255-2.155 1.351l-4.268.485v6.793c-.026 1.527-.65 2.984-1.739 4.055s-2.554 1.671-4.081 1.671h-3.395.001c-1.029 0-2.016.409-2.744 1.137a3.88 3.88 0 0 0-1.137 2.745v2.814a.97.97 0 0 1-.969.971.97.97 0 0 1-.97-.971v-2.912c0-1.544.613-3.025 1.704-4.117a5.82 5.82 0 0 1 4.116-1.705h3.298a3.88 3.88 0 0 0 3.88-3.785v-7.57a.97.97 0 0 1 .873-.971l5.238-.582a.97.97 0 0 0 .732-.483c.153-.269.169-.594.044-.876l-7.469-19.021c-.059-.121-.092-.253-.097-.388a22.23 22.23 0 0 0-6.014-14.945l-9.603 7.861h.001a10.39 10.39 0 0 1 1.6 7.109c-.342 2.485-1.572 4.762-3.462 6.41s-4.312 2.557-6.819 2.557-4.929-.908-6.819-2.557a10.38 10.38 0 0 1-3.462-6.41 10.39 10.39 0 0 1 1.6-7.109l-9.602-7.861h.001a21.25 21.25 0 0 0-4.559 7.376c-2.134 4.464-.97 14.071 0 21.738.291 2.814.679 5.434.776 7.666v20.38-.001a.97.97 0 1 1-1.94 0v-20.38l-.776-7.473c-.97-8.346-2.134-17.759.194-22.709v.001a23.11 23.11 0 0 1 4.85-7.958l-5.917-4.852a7.95 7.95 0 0 1-4.656 1.553h-.001zm35.403-18.827a6.02 6.02 0 0 0-2.376-4.76c-1.488-1.131-3.418-1.506-5.221-1.013s-3.275 1.796-3.982 3.526a6.02 6.02 0 0 0 .37 5.309c.941 1.615 2.58 2.702 4.434 2.939s3.713-.403 5.03-1.73a6.02 6.02 0 0 0 1.746-4.27zm-35.306 4.852c-1.595 0-3.124.634-4.252 1.763S4.15 19.464 4.15 21.06a6.02 6.02 0 0 0 1.761 4.255c1.128 1.128 2.658 1.762 4.252 1.762s3.124-.634 4.252-1.762a6.02 6.02 0 0 0-.034-8.544c-1.149-1.131-2.703-1.753-4.315-1.727h.097zm66.926 6.017h.001c0-1.596-.634-3.127-1.762-4.255a6.01 6.01 0 0 0-4.252-1.763c-1.595 0-3.124.634-4.252 1.763a6.02 6.02 0 0 0 0 8.509c1.128 1.128 2.658 1.762 4.252 1.762 1.579-.026 3.083-.671 4.19-1.796s1.727-2.641 1.727-4.22h.097zM57.303 32.317c-4.579-4.284-10.608-6.675-16.877-6.696h-.097v11.161c2.821.007 5.517 1.164 7.469 3.203l9.505-7.667zM40.329 55.608c2.238 0 4.385-.889 5.967-2.473s2.472-3.731 2.472-5.971-.889-4.386-2.472-5.97-3.729-2.473-5.967-2.473-4.384.889-5.967 2.473-2.472 3.73-2.472 5.97.889 4.387 2.472 5.971 3.729 2.473 5.967 2.473zm-1.94-18.633V25.718a25.6 25.6 0 0 0-15.034 6.599l9.505 7.764h.001a10.37 10.37 0 0 1 5.528-3.105z" stroke="#fff" stroke-width="2.4" mask="url(#A)"></path>
</svg>
