<?xml version="1.0" encoding="UTF-8"?>
<svg xmlns="http://www.w3.org/2000/svg" xmlns:v="https://vecta.io/nano" width="101" height="90" fill="none">
  <mask id="A" maskUnits="userSpaceOnUse" x="0" y="0" width="101" height="90" fill="#000">
    <path fill="#fff" d="M0 0h101v90H0z"></path>
    <path fill-rule="evenodd" d="M24.859 16.183h67.162v.001c5.113 0 8.676 4.106 8.134 9.141l-2.866 23.394c0 .155-.155 1.084-.775 2.401l-3.409-1.704c.31-.62.387-1.085.387-1.162l2.789-22.774c.387-3.021-1.782-5.5-4.803-5.5H25.557l1.751 9.761.001.006 5.143 28.269 13.84-.95h.003l16.68-1.142 1.084 3.796-30.986 2.091c.62 1.627 2.014 3.951 5.19 3.951h27.577l1.162 3.021H38.338c-7.437 0-9.451-6.043-9.451-9.373L21.373 17.81c-1.627-8.908-5.887-10.225-6.042-10.225h-4.57c-.775 1.859-2.556 3.563-4.725 3.563C3.247 11.148 1 8.824 1 6.035S3.247 1 6.035 1c2.169 0 3.951 1.627 4.725 3.486h4.88l.031.004c.717.098 6.901.948 9.187 11.693zm66.079 38.811l-6.507 2.556 8.443 10.535c.232.387.387.775.31 1.239s-.31.852-.62 1.085l-4.88 3.796c-.31.232-.697.31-1.007.31h-.232c-.465-.078-.852-.31-1.084-.62l-7.979-10.613-3.718 7.127c-.31.542-.93.929-1.549.852s-1.239-.542-1.394-1.162l-9.296-29.979c-.232-.62 0-1.317.465-1.704.542-.465 1.239-.542 1.782-.232L91.093 52.05c.542.31.852.93.852 1.549s-.387 1.162-1.007 1.394zm-12.549 4.338l8.521 11.31 2.402-1.782-8.676-11c-.31-.387-.465-.93-.31-1.394.077-.465.465-.93.93-1.085l5.113-2.014L65.53 42.832l7.049 22.698 3.099-5.965c.31-.465.775-.775 1.317-.852h.155c.465 0 .93.232 1.239.62zm-.544 16.189c-3.641 0-6.662 3.021-6.662 6.739S74.204 89 77.844 89s6.662-3.021 6.662-6.739-3.021-6.739-6.662-6.739zm0 10.225a3.47 3.47 0 0 1 0-6.972 3.47 3.47 0 0 1 3.486 3.486c0 1.859-1.549 3.486-3.486 3.486zm-45.006-3.486c0-3.718 3.021-6.739 6.662-6.739s6.662 3.021 6.662 6.739S43.141 89 39.5 89s-6.662-3.021-6.662-6.739zm3.176 0a3.47 3.47 0 0 0 3.486 3.486c1.937 0 3.486-1.627 3.486-3.486a3.47 3.47 0 1 0-6.972 0z"></path>
  </mask>
  <path fill-rule="evenodd" d="M24.859 16.183h67.162v.001c5.113 0 8.676 4.106 8.134 9.141l-2.866 23.394c0 .155-.155 1.084-.775 2.401l-3.409-1.704c.31-.62.387-1.085.387-1.162l2.789-22.774c.387-3.021-1.782-5.5-4.803-5.5H25.557l1.751 9.761.001.006 5.143 28.269 13.84-.95h.003l16.68-1.142 1.084 3.796-30.986 2.091c.62 1.627 2.014 3.951 5.19 3.951h27.577l1.162 3.021H38.338c-7.437 0-9.451-6.043-9.451-9.373L21.373 17.81c-1.627-8.908-5.887-10.225-6.042-10.225h-4.57c-.775 1.859-2.556 3.563-4.725 3.563C3.247 11.148 1 8.824 1 6.035S3.247 1 6.035 1c2.169 0 3.951 1.627 4.725 3.486h4.88l.031.004c.717.098 6.901.948 9.187 11.693zm66.079 38.811l-6.507 2.556 8.443 10.535c.232.387.387.775.31 1.239s-.31.852-.62 1.085l-4.88 3.796c-.31.232-.697.31-1.007.31h-.232c-.465-.078-.852-.31-1.084-.62l-7.979-10.613-3.718 7.127c-.31.542-.93.929-1.549.852s-1.239-.542-1.394-1.162l-9.296-29.979c-.232-.62 0-1.317.465-1.704.542-.465 1.239-.542 1.782-.232L91.093 52.05c.542.31.852.93.852 1.549s-.387 1.162-1.007 1.394zm-12.549 4.338l8.521 11.31 2.402-1.782-8.676-11c-.31-.387-.465-.93-.31-1.394.077-.465.465-.93.93-1.085l5.113-2.014L65.53 42.832l7.049 22.698 3.099-5.965c.31-.465.775-.775 1.317-.852h.155c.465 0 .93.232 1.239.62zm-.544 16.189c-3.641 0-6.662 3.021-6.662 6.739S74.204 89 77.844 89s6.662-3.021 6.662-6.739-3.021-6.739-6.662-6.739zm0 10.225a3.47 3.47 0 0 1 0-6.972 3.47 3.47 0 0 1 3.486 3.486c0 1.859-1.549 3.486-3.486 3.486zm-45.006-3.486c0-3.718 3.021-6.739 6.662-6.739s6.662 3.021 6.662 6.739S43.141 89 39.5 89s-6.662-3.021-6.662-6.739zm3.176 0a3.47 3.47 0 0 0 3.486 3.486c1.937 0 3.486-1.627 3.486-3.486a3.47 3.47 0 1 0-6.972 0z" fill="#fff"></path>
  <path d="M92.021 16.183l.494-.075-.065-.425h-.43v.5zm-67.162 0l-.489.104.084.396h.405v-.5zm67.162.001l-.494.075.065.425h.429v-.5zm8.134 9.141l.496.061.001-.007-.497-.053zm-2.866 23.394l-.496-.061-.004.03v.031h.5zm-.775 2.401l-.224.447.458.229.218-.463-.452-.213zm-3.409-1.704l-.447-.224-.224.447.447.224.224-.447zm.387-1.162l-.496-.061-.004.03v.031h.5zm2.789-22.774l-.496-.064v.003l.496.061zm-70.725-5.5v-.5h-.598l.106.589.492-.089zm1.751 9.761l-.492.088h0l.492-.088zm.001.006l.492-.088h0l-.492.088zm5.143 28.269l-.49.098.086.431.439-.031-.035-.499zm13.84-.95l.034.499h0l-.035-.499zm.003 0l-.034-.499h-.001l.035.499zm16.68-1.142l.481-.137-.111-.389-.404.028.034.499zm1.084 3.796l.035.499.615-.043-.169-.593-.481.137zm-30.986 2.091l-.031-.499-.679.042.242.635.467-.178zm32.768 3.951l.467-.18-.123-.32h-.343v.5zm1.162 3.021v.5h.728l-.261-.68-.467.18zm-38.114-9.373h.5v-.045l-.008-.044-.492.09zM21.373 17.81l.492-.087v-.003l-.492.09zM10.761 7.585v-.5h-.333l-.128.308.461.192zm0-3.099l-.462.192.128.308h.333v-.5zm4.88 0l.069-.495-.034-.005h-.034v.5zm.031.004l-.069.495h.001l.068-.495zm68.759 53.06l-.183-.465-.632.248.425.53.39-.313zm6.507-2.556l-.175-.468-.007.003.183.465zm1.936 13.091l.429-.257-.017-.029-.021-.026-.39.313zm.31 1.239l-.493-.082h0l.493.082zm-.62 1.085l-.3-.4-.007.005.307.395zm-4.88 3.796l.3.4.007-.005-.307-.395zm-1.239.31l-.082.493.041.007h.041v-.5zm-1.084-.62l.4-.3h0l-.4.3zm-7.979-10.613l.4-.301-.476-.633-.367.703.443.231zm-3.718 7.127l.434.248.005-.008.004-.009-.443-.231zm-1.549.852l-.062.496h0l.062-.496zm-1.394-1.162l.485-.121-.003-.014-.004-.013-.478.148zm-9.296-29.979l.477-.148-.004-.014-.005-.014-.468.176zm.465-1.704l.32.384.005-.005-.325-.38zm1.782-.232l-.248.434.011.006.011.006.226-.446zM91.093 52.05l.248-.434-.011-.006-.011-.006-.226.446zM86.91 70.642l-.399.301.299.396.399-.296-.298-.401zm-8.521-11.31l.399-.301-.004-.006-.005-.006-.39.312zm10.923 9.528l.298.402.414-.307-.319-.404-.393.31zm-8.676-11l.393-.31-.002-.003-.391.312zm-.31-1.394l.474.158.012-.037.006-.039-.493-.082zm.93-1.085l.158.474.013-.004.012-.005-.183-.465zm5.113-2.014l.183.465 1.037-.409-.995-.503-.226.446zM65.53 42.832l.226-.446-1.053-.532.35 1.127.478-.148zm7.049 22.698l-.478.148.361 1.161.56-1.079-.444-.23zm3.099-5.965l-.416-.277-.015.023-.013.024.444.23zm1.317-.852v-.5h-.035l-.035.005.071.495zm15.027-43.029H24.859v1h67.162v-1zm.495.426v-.001l-.989.151v.001l.989-.151zm8.136 9.27c.573-5.323-3.212-9.694-8.631-9.694v1c4.807 0 8.148 3.839 7.637 8.587l.994.107zM97.785 48.78l2.866-23.394-.992-.122-2.866 23.394.993.122zm-.819 2.553c.322-.685.525-1.273.649-1.715.118-.423.173-.75.173-.899h-1c0-.011-.002.038-.025.163-.021.114-.057.272-.111.467-.109.39-.293.926-.59 1.558l.905.426zm-4.085-1.47l3.409 1.704.447-.894-3.408-1.704-.447.895zm.111-1.609c0-.034-.003.046-.058.24-.05.176-.136.418-.276.698l.894.447c.17-.339.277-.64.343-.871a2.18 2.18 0 0 0 .097-.515h-1zm2.793-22.835l-2.789 22.774.993.122 2.789-22.774-.993-.122zm-4.306-4.939c2.716 0 4.656 2.211 4.307 4.936l.992.127c.425-3.317-1.973-6.064-5.299-6.064v1zm-65.922 0h65.922v-1H25.557v1zm2.243 9.173l-1.751-9.761-.984.177 1.751 9.76.984-.176zm.001.006l-.001-.006-.984.176.001.006.984-.176zm5.141 28.259c-.762-3.812-3.128-17.022-5.141-28.259l-.984.176 5.145 28.279.981-.196zm13.315-1.351l-13.84.95.07.998 13.839-.95-.068-.998zm.002 0h-.003l.069.998h.003l-.069-.998zm16.68-1.142L46.26 56.566l.068.998 16.68-1.142-.069-.998zm1.6 4.157l-1.084-3.796-.962.275 1.084 3.796.962-.275zM33.102 62.31l30.99-2.092-.07-.998-30.982 2.091.061.998zm5.159 2.952c-2.856 0-4.126-2.063-4.723-3.629l-.934.356c.643 1.688 2.161 4.273 5.657 4.273v-1zm27.577 0H38.262v1h27.577v-1zm1.629 3.342l-1.162-3.021-.933.359 1.162 3.021.933-.359zm-29.13.68h28.663v-1H38.338v1zm-9.951-9.873c0 1.749.525 4.203 2.035 6.234 1.528 2.055 4.04 3.639 7.915 3.639v-1c-3.561 0-5.775-1.437-7.113-3.236-1.356-1.823-1.838-4.055-1.838-5.637h-1zm-7.507-41.512l4.542 25.247 2.093 11.522.643 3.532.176.964.046.251.012.064.004.02c0 .001 0 .001.492-.088l.492-.09-.004-.021-.012-.064-.046-.251-.176-.964-.643-3.532-2.093-11.522-4.541-25.242-.985.174zm-5.55-9.812c-.034 0-.059-.004-.065-.005.022.008.062.021.118.043.11.044.273.119.474.237.403.237.96.647 1.569 1.329 1.216 1.362 2.654 3.829 3.454 8.21l.984-.18c-.827-4.527-2.332-7.173-3.692-8.697-.679-.761-1.318-1.237-1.808-1.525-.245-.144-.453-.242-.612-.305a2.41 2.41 0 0 0-.205-.072 1.25 1.25 0 0 0-.084-.022c-.014-.003-.069-.016-.133-.016v1zm-4.57 0h4.57v-1h-4.57v1zm-4.725 3.563c2.44 0 4.365-1.899 5.187-3.871l-.923-.385c-.728 1.746-2.366 3.256-4.264 3.256v1zM.5 6.035c0 3.055 2.461 5.613 5.535 5.613v-1c-2.503 0-4.535-2.09-4.535-4.613h-1zM6.035.5C2.97.5.5 2.97.5 6.035h1C1.5 3.523 3.523 1.5 6.035 1.5v-1zm5.187 3.794C10.395 2.309 8.465.5 6.035.5v1c1.908 0 3.542 1.445 4.264 3.178l.923-.385zm4.419-.308h-4.88v1h4.88v-1zm.1.009l-.031-.004-.138.99.031.004.137-.99zm9.607 12.084c-1.162-5.464-3.331-8.471-5.355-10.122s-3.85-1.907-4.253-1.962l-.136.991c.313.043 1.936.26 3.757 1.746s3.886 4.275 5.009 9.555l.978-.208zm59.266 41.936l6.507-2.556-.366-.931-6.507 2.556.366.931zm8.65 9.757l-8.443-10.535-.78.625 8.443 10.535.78-.625zm.413 1.634c.106-.638-.118-1.152-.374-1.579l-.857.514c.208.347.294.608.245.9l.986.165zm-.813 1.402c.425-.319.717-.826.813-1.402l-.986-.164c-.059.353-.231.62-.427.767l.6.8zM87.991 74.6l4.88-3.796-.614-.789-4.88 3.796.614.789zm-1.314.415c.38 0 .884-.093 1.307-.41l-.6-.8c-.197.148-.467.21-.707.21v1zm-.232 0h.232v-1h-.232v1zm-1.484-.82c.319.425.826.717 1.402.813l.164-.986c-.354-.059-.62-.231-.767-.427l-.8.6zm-7.978-10.612l7.979 10.613.799-.601-7.979-10.613-.799.601zm-2.875 7.058l3.718-7.127-.887-.463-3.718 7.127.887.462zm-2.055 1.117c.862.108 1.658-.423 2.046-1.1l-.868-.496c-.233.407-.676.651-1.053.604l-.124.992zm-1.817-1.537c.214.855 1.031 1.439 1.817 1.537l.124-.992c-.453-.056-.875-.402-.971-.787l-.97.243zm-9.288-29.952l9.296 29.979.955-.296-9.296-29.978-.955.296zm.622-2.236c-.613.511-.927 1.427-.613 2.264l.936-.351c-.151-.403 0-.881.317-1.145l-.64-.768zm2.35-.282c-.746-.426-1.671-.299-2.355.287l.651.759c.4-.343.87-.371 1.208-.178l.496-.868zm27.401 13.854L63.895 37.738l-.451.892 27.424 13.866.451-.892zm1.126 1.995c0-.772-.384-1.572-1.104-1.983l-.496.868c.364.208.6.648.6 1.115h1zm-1.332 1.862c.801-.3 1.332-1.02 1.332-1.862h-1c0 .397-.244.762-.683.926l.351.936zm-3.804 14.879l-8.521-11.31-.799.602 8.521 11.31.799-.602zm1.705-1.883l-2.402 1.782.596.803 2.402-1.782-.596-.803zm-8.771-10.289l8.676 11 .785-.619-8.676-11-.785.619zm-.392-1.862c-.222.666.007 1.382.394 1.865l.781-.625c-.233-.292-.314-.66-.226-.924l-.949-.316zm1.246-1.401c-.642.214-1.157.831-1.265 1.477l.986.164a.97.97 0 0 1 .595-.692l-.316-.949zm5.088-2.005l-5.113 2.014.367.93 5.113-2.014-.367-.93zm-20.881-9.624l20.838 10.535.451-.892-20.838-10.535-.451.892zm7.752 22.103l-7.049-22.698-.955.297 7.049 22.698.955-.297zm2.177-6.047l-3.099 5.965.887.461 3.099-5.965-.887-.461zm1.69-1.117c-.694.099-1.28.496-1.662 1.07l.832.555c.237-.356.581-.579.972-.635l-.141-.99zm.226-.005h-.155v1h.155v-1zm1.63.807c-.397-.497-1.002-.807-1.63-.807v1c.302 0 .627.154.849.432l.781-.625zm-7.097 23.241c0-3.446 2.801-6.239 6.162-6.239v-1c-3.921 0-7.162 3.249-7.162 7.239h1zm6.162 6.239c-3.361 0-6.162-2.793-6.162-6.239h-1c0 3.991 3.241 7.239 7.162 7.239v-1zm6.162-6.239c0 3.446-2.801 6.239-6.162 6.239v1c3.921 0 7.162-3.249 7.162-7.239h-1zm-6.162-6.239c3.361 0 6.162 2.793 6.162 6.239h1c0-3.991-3.241-7.239-7.162-7.239v1zm-3.986 6.239a3.97 3.97 0 0 0 3.986 3.986v-1a2.97 2.97 0 0 1-2.986-2.986h-1zm3.986-3.986a3.97 3.97 0 0 0-3.986 3.986h1a2.97 2.97 0 0 1 2.986-2.986v-1zm3.986 3.986a3.97 3.97 0 0 0-3.986-3.986v1a2.97 2.97 0 0 1 2.986 2.986h1zm-3.986 3.986c2.22 0 3.986-1.858 3.986-3.986h-1c0 1.59-1.333 2.986-2.986 2.986v1zM39.5 75.021c-3.921 0-7.162 3.249-7.162 7.239h1c0-3.446 2.801-6.239 6.162-6.239v-1zm7.162 7.239c0-3.991-3.241-7.239-7.162-7.239v1c3.361 0 6.162 2.793 6.162 6.239h1zM39.5 89.5c3.921 0 7.162-3.249 7.162-7.239h-1c0 3.446-2.801 6.239-6.162 6.239v1zm-7.162-7.239c0 3.991 3.241 7.239 7.162 7.239v-1c-3.361 0-6.162-2.793-6.162-6.239h-1zm7.162 2.986a2.97 2.97 0 0 1-2.986-2.986h-1a3.97 3.97 0 0 0 3.986 3.986v-1zm2.986-2.986c0 1.59-1.333 2.986-2.986 2.986v1c2.22 0 3.986-1.858 3.986-3.986h-1zM39.5 79.274a2.97 2.97 0 0 1 2.986 2.986h1a3.97 3.97 0 0 0-3.986-3.986v1zm-2.986 2.986a2.97 2.97 0 0 1 2.986-2.986v-1a3.97 3.97 0 0 0-3.986 3.986h1z" fill="#fff" mask="url(#A)"></path>
</svg>
