<?xml version="1.0" encoding="UTF-8"?>
<svg xmlns="http://www.w3.org/2000/svg" xmlns:v="https://vecta.io/nano" width="93" height="89" fill="none">
  <mask id="A" maskUnits="userSpaceOnUse" x="0" y="0" width="93" height="89" fill="#000">
    <path fill="#fff" d="M0 0h93v89H0z"></path>
    <path fill-rule="evenodd" d="M86.652 41.222H49.069h-.001c-.342 0-.669-.136-.91-.377a1.29 1.29 0 0 1-.377-.91V2.287A1.29 1.29 0 0 1 49.068 1a38.92 38.92 0 0 1 38.87 38.934 1.29 1.29 0 0 1-.377.91c-.242.242-.568.377-.909.377zM74.723 14.278C68.233 7.787 59.529 3.991 50.356 3.652V38.65h34.984a36.35 36.35 0 0 0-10.617-24.372zm-33.55 34.156V11.52a1.29 1.29 0 0 0-.377-.909c-.242-.242-.569-.377-.91-.377-8.975-.001-17.673 3.103-24.618 8.784a38.88 38.88 0 0 0-9.766 48.259 38.88 38.88 0 0 0 19.266 17.665c8.268 3.489 17.488 4.01 26.098 1.476S66.942 78.448 72 71.036c.402-.586.252-1.387-.334-1.789L41.173 48.434zm-1.287 37.043c-12.735-.123-24.473-6.909-30.939-17.883a36.31 36.31 0 0 1-.633-35.728c6.069-11.198 17.561-18.394 30.284-18.969v36.22a1.29 1.29 0 0 0 .566 1.068l29.964 20.439c-6.826 9.326-17.686 14.842-29.242 14.853v-.001zM90.29 46.894H52.707a1.29 1.29 0 0 0-1.234.91c-.166.542.042 1.129.513 1.446L83.03 70.384c.586.402 1.387.252 1.788-.334a38.61 38.61 0 0 0 6.77-21.881c-.004-.341-.142-.667-.386-.906s-.573-.372-.914-.368h.001zm-6.899 20.671L56.826 49.469h32.177c-.224 6.425-2.161 12.674-5.612 18.097h-.001z"></path>
  </mask>
  <path fill-rule="evenodd" d="M86.652 41.222H49.069h-.001c-.342 0-.669-.136-.91-.377a1.29 1.29 0 0 1-.377-.91V2.287A1.29 1.29 0 0 1 49.068 1a38.92 38.92 0 0 1 38.87 38.934 1.29 1.29 0 0 1-.377.91c-.242.242-.568.377-.909.377zM74.723 14.278C68.233 7.787 59.529 3.991 50.356 3.652V38.65h34.984a36.35 36.35 0 0 0-10.617-24.372zm-33.55 34.156V11.52a1.29 1.29 0 0 0-.377-.909c-.242-.242-.569-.377-.91-.377-8.975-.001-17.673 3.103-24.618 8.784a38.88 38.88 0 0 0-9.766 48.259 38.88 38.88 0 0 0 19.266 17.665c8.268 3.489 17.488 4.01 26.098 1.476S66.942 78.448 72 71.036c.402-.586.252-1.387-.334-1.789L41.173 48.434zm-1.287 37.043c-12.735-.123-24.473-6.909-30.939-17.883a36.31 36.31 0 0 1-.633-35.728c6.069-11.198 17.561-18.394 30.284-18.969v36.22a1.29 1.29 0 0 0 .566 1.068l29.964 20.439c-6.826 9.326-17.686 14.842-29.242 14.853v-.001zM90.29 46.894H52.707a1.29 1.29 0 0 0-1.234.91c-.166.542.042 1.129.513 1.446L83.03 70.384c.586.402 1.387.252 1.788-.334a38.61 38.61 0 0 0 6.77-21.881c-.004-.341-.142-.667-.386-.906s-.573-.372-.914-.368h.001zm-6.899 20.671L56.826 49.469h32.177c-.224 6.425-2.161 12.674-5.612 18.097h-.001z" fill="#fff"></path>
  <path d="M49.069 41.222l-.457.89.215.11h.242v-1zm-.001 0l.457-.89-.215-.11h-.242v1zm-.91-.377l.707-.707h0l-.707.707zM49.068 1l.001-1h-.001v1zm27.493 11.423l-.708.707h0l.708-.707zm11.377 27.512h-1 0 1zm-.377.91l.707.707h0l-.707-.707zM50.356 3.652l.037-.999-1.037-.038v1.038h1zm24.366 10.625l.707-.707h0l-.707.707zM50.356 38.65h-1v1h1v-1zm34.984 0v1h1.037l-.038-1.036-.999.036zm-44.166 9.784h-1v.528l.436.298.564-.826zm-.377-37.824l-.707.707h0l.707-.707zm-.91-.377v1h0v-1zm-24.618 8.784l.633.774h0l-.633-.774zM1.773 41.403l-.98-.198h0l.98.198zm3.729 25.873l.884-.467h0l-.884.467zm19.266 17.665l.389-.921h0l-.389.921zm26.098 1.476l.282.959h0l-.282-.959zM72 71.036l-.825-.566-.001.002.826.564zm-.334-1.789l.566-.825-.002-.001-.564.826zM8.947 67.595l-.862.507h0l.862-.508zm30.939 17.883l.964-.265-.2-.728-.755-.007-.01 1zm-1.288-72.58h1v-1.046l-1.045.047.045.999zm.566 37.289l.564-.826-.004-.002-.56.828zm29.964 20.439l.807.591.611-.834-.854-.582-.564.826zM39.886 85.478l-.964.265.202.736.763-.001-.001-1zm12.821-38.583l-.002 1h.002v-1zm37.583 0v1l.024-2-.024 1zm-38.817.91l-.956-.293h0l.956.293zm.513 1.446l.563-.827-.005-.003-.558.83zM83.03 70.384l.566-.825-.003-.002-.563.827zm1.788-.334l-.825-.566-.001.001.825.565zm6.77-21.881l1-.001v-.009l-1 .011zm-.386-.906l-.701.714.001.001.699-.715zm-.914-.368l-.011-1-.014 2 .024-1zm-33.462 2.574v-1h-3.244l2.681 1.827.563-.827zm26.565 18.097l-.563.826.255.174h.308v-1zm5.613-18.097l.999.035.036-1.035h-1.035v1zm-5.612 18.097v1h.549l.295-.463-.844-.537zM49.069 42.222h37.583v-2H49.069v2zm-.457-.111h.001l.913-1.779h-.001l-.913 1.779zm-1.161-.56c.429.429 1.01.67 1.617.67v-2c-.077 0-.149-.03-.203-.084l-1.414 1.414zm-.67-1.617a2.29 2.29 0 0 0 .67 1.617l1.414-1.414c-.054-.054-.084-.127-.084-.203h-2zm0-37.648v37.648h2V2.287h-2zM49.068 0a2.29 2.29 0 0 0-2.287 2.287h2c0-.157.128-.287.287-.287V0zm28.201 11.716A39.92 39.92 0 0 0 49.07 0l-.003 2a37.92 37.92 0 0 1 26.787 11.129l1.415-1.413zm11.669 28.219a39.92 39.92 0 0 0-11.669-28.218l-1.415 1.413a37.92 37.92 0 0 1 11.085 26.805l2 .001zm-.67 1.617a2.29 2.29 0 0 0 .67-1.618h-2c0 .076-.03.149-.084.203l1.414 1.414zm-1.617.67c.607 0 1.188-.241 1.617-.67l-1.414-1.414c-.054.054-.127.084-.202.084v2zM50.32 4.652c8.92.329 17.385 4.021 23.696 10.333l1.414-1.414C68.761 6.901 59.818 3.001 50.393 2.653l-.074 1.999zm1.036 33.998V3.653h-2V38.65h2zm33.984-1H50.356v2h34.984v-2zM74.016 14.985A35.35 35.35 0 0 1 84.34 38.686l1.999-.073A37.35 37.35 0 0 0 75.43 13.571l-1.415 1.414zM40.173 11.52v36.914h2V11.52h-2zm-.084-.202c.054.054.084.128.084.202h2a2.29 2.29 0 0 0-.67-1.617l-1.414 1.414zm-.203-.084c.076 0 .149.03.203.084l1.414-1.414a2.29 2.29 0 0 0-1.617-.67v2zm-23.985 8.558c6.767-5.535 15.241-8.559 23.985-8.558v-2c-9.205-.001-18.127 3.183-25.251 9.01l1.266 1.548zM2.753 41.602a37.88 37.88 0 0 1 13.148-21.81l-1.266-1.548A39.88 39.88 0 0 0 .793 41.205l1.96.397zm3.633 25.207a37.88 37.88 0 0 1-3.633-25.207l-1.96-.397a39.88 39.88 0 0 0 3.825 26.538l1.768-.934zm18.77 17.211a37.88 37.88 0 0 1-18.77-17.211l-1.769.934a39.88 39.88 0 0 0 19.762 18.12l.777-1.843zm25.427 1.438c-8.388 2.469-17.372 1.961-25.427-1.438l-.778 1.843c8.481 3.579 17.938 4.114 26.769 1.514l-.565-1.919zm20.591-14.986c-4.928 7.222-12.204 12.516-20.591 14.986l.565 1.919c8.83-2.6 16.49-8.174 21.678-15.777l-1.652-1.127zm-.074-.401c.132.09.164.269.075.399l1.649 1.131c.715-1.043.448-2.466-.593-3.18L71.1 70.071zM40.61 49.26l30.493 20.813 1.127-1.652-30.493-20.813-1.128 1.652zM8.086 68.102c6.643 11.276 18.704 18.249 31.79 18.375l.019-2c-12.385-.12-23.799-6.718-30.087-17.39l-1.723 1.015zM7.435 31.39a37.31 37.31 0 0 0 .65 36.712l1.723-1.015a35.31 35.31 0 0 1-.615-34.745l-1.758-.953zm31.118-19.491c-13.073.59-24.881 7.985-31.118 19.491l1.758.953c5.902-10.889 17.077-17.888 29.449-18.446l-.09-1.998zm1.045 37.219v-36.22h-2v36.22h2zm.127.24a.29.29 0 0 1-.127-.24h-2a2.29 2.29 0 0 0 1.007 1.897l1.12-1.657zm29.968 20.441L39.728 49.36l-1.127 1.652 29.964 20.439 1.127-1.652zM39.887 86.478c11.875-.012 23.034-5.68 30.048-15.263l-1.614-1.181c-6.638 9.068-17.198 14.432-28.436 14.444l.002 2zm-.965-.736v.001l1.929-.529v-.001l-1.929.529zm13.785-37.847H90.29v-2H52.707v2zm-.278.204a.29.29 0 0 1 .276-.204l.003-2a2.29 2.29 0 0 0-2.191 1.617l1.912.587zm.114.322c-.104-.07-.151-.201-.114-.323l-1.912-.586a2.29 2.29 0 0 0 .911 2.569l1.115-1.66zm31.049 21.137L52.548 48.424l-1.126 1.653L82.467 71.21l1.125-1.653zm.4-.072c-.089.13-.267.164-.397.074l-1.131 1.649c1.042.715 2.466.448 3.179-.594l-1.65-1.13zm6.596-21.315a37.61 37.61 0 0 1-6.595 21.315l1.649 1.131a39.61 39.61 0 0 0 6.946-22.448l-2 .002zm-.085-.192c.053.052.085.124.085.202l2-.021c-.006-.605-.252-1.185-.687-1.61l-1.398 1.43zm-.204-.083c.075-.001.149.029.203.082l1.401-1.427c-.433-.425-1.018-.661-1.625-.654l.021 2zm.015-2h-.001l-.048 1.999h.001l.048-1.999zm-34.051 4.4l26.565 18.097 1.126-1.653-26.565-18.097-1.126 1.653zm32.74-1.827H56.826v2h32.177v-2zm-4.769 19.634c3.547-5.574 5.538-11.996 5.768-18.599l-1.999-.07c-.217 6.246-2.101 12.322-5.456 17.595l1.687 1.074zm-.844.463h.001v-2h-.001v2z" fill="#fff" mask="url(#A)"></path>
</svg>
