<?xml version="1.0" encoding="UTF-8"?>
<svg xmlns="http://www.w3.org/2000/svg" xmlns:v="https://vecta.io/nano" width="100" height="79" fill="none">
  <path d="M5.218 0C2.372 0 0 2.372 0 5.218v67.826c0 2.845 2.372 5.218 5.218 5.218h89.565c2.845 0 5.218-2.372 5.218-5.218l-.001-67.826C99.999 2.372 97.627 0 94.782 0H5.218zm0 5.218h89.565v67.826H5.218V5.218zm11.196 16.495a2.68 2.68 0 0 0-2.423 1.818c-.326 1.027.064 2.24.929 2.884l16.467 12.689-16.467 12.744c-1.082.839-1.302 2.587-.462 3.668s2.588 1.302 3.668.462l19.13-14.81c1.257-.971 1.257-3.16 0-4.131l-19.13-14.755c-.479-.383-1.098-.589-1.712-.569zm24.185 28.722c-1.366.071-2.544 1.379-2.474 2.745s1.379 2.544 2.745 2.472h20.869c1.378.019 2.646-1.23 2.646-2.609s-1.268-2.628-2.646-2.609l-21.141.001z" fill="#fff"></path>
</svg>
