<svg version="1.1" id="Layer_1" xmlns="http://www.w3.org/2000/svg" x="0" y="0" viewBox="0 0 207.88 64.18" style="enable-background:new 0 0 207.88 64.18" xml:space="preserve"><style>.st0{fill:#6a98be}</style><g id="Final-klizer-white-logo-01" transform="translate(-35.33 -36.94)"><path id="Path_68" class="st0" d="M61.99 41.77c-12.45 0-22.54 10.09-22.54 22.54s10.09 22.54 22.54 22.54 22.54-10.09 22.54-22.54-10.09-22.54-22.54-22.54zm3.54 35.51h-3.54c-.16 0-.32 0-.48-.01-.32-.01-.65-.05-.96-.11-.12-.02-.23-.06-.35-.1-.15-.06-.29-.13-.42-.22-.14-.08-.27-.18-.39-.27-.26-.19-.5-.41-.72-.64-.23-.23-.44-.47-.66-.72-.19-.23-.38-.46-.57-.68-.75-.91-1.44-1.86-2.14-2.81 0 0-.94-1.29-1.6-2.17-1.61-2.19-3.92-5.34-4-5.44l4-5.44 1.6-2.17c.7-.95 1.39-1.9 2.14-2.81.19-.22.37-.45.57-.68.21-.25.43-.49.66-.72.23-.23.47-.44.72-.64.12-.1.26-.19.39-.27a2.097 2.097 0 0 1 .77-.32c.32-.06.64-.09.96-.11.24-.01.47-.02.7-.02h3.58c.29.02.57.05.86.11-.06.01-.12.01-.17.02-.12.02-.23.06-.35.1-.15.06-.29.13-.42.22-.13.08-.27.17-.39.27-.26.19-.5.41-.72.64-.23.23-.44.47-.66.72-.19.23-.38.46-.57.68-.75.91-1.44 1.86-2.14 2.81 0 0-.94 1.29-1.6 2.17-1.61 2.19-3.92 5.34-4 5.44.07.1 2.39 3.25 4 5.44.65.89 1.6 2.17 1.6 2.17.7.95 1.39 1.9 2.14 2.81.19.22.37.45.57.68.21.25.43.49.66.72.23.23.47.44.72.64.12.1.26.19.39.27a2.097 2.097 0 0 0 .77.32c.04.01.08.01.12.01-.36.07-.71.1-1.07.11zm5.53-2.67c.05.62-.13 1.23-.49 1.73-.31.38-.73.64-1.21.75-.12.03-.26.05-.39.07-.04 0-.08-.01-.12-.01-.12-.02-.23-.06-.35-.1-.15-.06-.29-.13-.42-.22-.14-.08-.27-.18-.39-.27-.26-.19-.5-.41-.72-.64-.23-.23-.44-.47-.66-.72-.19-.23-.38-.46-.57-.68-.75-.91-1.44-1.86-2.14-2.81 0 0-.94-1.29-1.6-2.17-1.61-2.19-3.92-5.34-4-5.44.07-.1 2.39-3.25 4-5.44l1.6-2.17c.7-.95 1.39-1.9 2.14-2.81.19-.22.37-.45.57-.68.21-.25.43-.49.66-.72.23-.23.47-.44.72-.64.12-.1.26-.19.39-.27a2.097 2.097 0 0 1 .77-.32c.06-.01.12-.01.18-.02.1.01.19.01.29.04 1.11.2 1.87 1.23 1.74 2.35v21.19z"/><g id="Group_4954" transform="translate(88.866 37.612)"><path id="Path_69" class="st0" d="M16 30.5v8.16c0 1.51.32 2.47.96 2.87.7.41 1.49.62 2.3.59h1.6v2.53H4.12v-2.53h1.6c.79.02 1.57-.17 2.27-.54.65-.36.98-1.25.98-2.66V13.56c0-1.41-.33-2.31-.98-2.69-.69-.39-1.48-.59-2.27-.57h-1.6V7.77h16.73v2.53h-1.6c-.81-.02-1.6.18-2.3.59-.63.4-.95 1.35-.95 2.87V30.5z"/><path id="Path_70" class="st0" d="M43.11 44.62v-2.38h.67c.61 0 1.22-.07 1.81-.22.58-.14 1.09-.46 1.47-.92.44-.61.65-1.36.59-2.11V13.14c.06-.73-.16-1.45-.62-2.02-.4-.43-.92-.73-1.5-.85a8.04 8.04 0 0 0-1.76-.19l-.67-.01V7.7h11.26v31.28c-.06.75.16 1.5.6 2.11.38.46.91.79 1.5.92.58.14 1.18.21 1.78.22h.67v2.38l-15.8.01z"/><path id="Path_71" class="st0" d="M76.84 44.66v-2.12l15.14-22.26h-7.75c-.79-.07-1.58.25-2.09.85-.58.91-.99 1.92-1.22 2.97l-.2.83h-2.74l.57-7.95h21.33v2.17L84.7 41.36h9.2c.93.08 1.83-.33 2.38-1.09.56-.95.93-2 1.09-3.1l.31-1.5h2.68l-.26 8.99H76.84z"/><path id="Path_72" class="st0" d="M115.51 45.17c-4.13 0-7.31-1.25-9.53-3.75-2.22-2.5-3.33-5.98-3.33-10.46 0-4.82 1.08-8.46 3.23-10.93 2.15-2.46 5.17-3.69 9.07-3.69 3.61 0 6.45 1.04 8.5 3.12s3.08 5.17 3.08 9.27v2.53h-17.05c.1 3.58.77 6.19 1.99 7.82a6.145 6.145 0 0 0 5.24 2.45c2.98.1 5.79-1.42 7.33-3.98a2 2 0 0 1 .9.85c.23.42.34.89.33 1.37-.03.94-.41 1.84-1.06 2.53-.88.94-1.98 1.64-3.2 2.04-1.77.62-3.63.89-5.5.83zm4.14-16.99c.09-2.17-.27-4.33-1.06-6.36A3.67 3.67 0 0 0 115 19.5c-1.59-.02-3.05.83-3.82 2.22a13.614 13.614 0 0 0-1.6 6.46h10.07z"/><path id="Path_73" class="st0" d="M127.79 44.66v-2.53h.16c1.01.04 2.02-.18 2.92-.64.77-.43 1.16-1.45 1.16-3.07V23.01c0-1.51-.37-2.48-1.11-2.89-.87-.44-1.84-.66-2.82-.62h-.16v-2.53h9.51l.98 4.44h.26c.4-.95.91-1.85 1.52-2.68A5.37 5.37 0 0 1 142.4 17c1.12-.43 2.31-.64 3.51-.59a7.52 7.52 0 0 1 4.37 1.03c.95.7 1.48 1.82 1.42 3a4 4 0 0 1-1.5 3.28 6.85 6.85 0 0 1-4.39 1.21c.06-1.08-.12-2.16-.54-3.15a2.08 2.08 0 0 0-2.04-1.03c-.87-.03-1.71.34-2.27 1.01-.62.73-1.08 1.59-1.37 2.51a15.73 15.73 0 0 0-.67 3.1c-.11.89-.17 1.79-.18 2.68v8.62c0 1.51.37 2.47 1.11 2.87.84.42 1.77.62 2.71.59h1.6v2.53h-16.37z"/><g id="Group_4952" transform="translate(94.585 46.786)"><g id="Group_4951"><path id="Path_74" class="st0" d="M4.12 4.94h1.07v2.55c.37-.5.95-.8 1.58-.8 1.26 0 2.17.99 2.17 2.58 0 1.62-.93 2.57-2.17 2.57-.62 0-1.21-.29-1.58-.79v.67H4.12V4.94zm2.33 5.95c.9-.14 1.51-.99 1.37-1.89-.12-.71-.67-1.26-1.37-1.37-.51.01-.97.26-1.26.67v1.94c.29.4.76.64 1.26.65z"/><path id="Path_75" class="st0" d="M10.18 12.76c.3.03.59-.14.7-.43l.24-.56L9.11 6.8h1.14l1.43 3.68 1.43-3.68h1.15l-2.36 5.79c-.24.71-.94 1.17-1.69 1.11-.2 0-.4-.03-.6-.07l.16-.95c.13.05.27.08.41.08z"/><path id="Path_76" class="st0" d="M17.58 4.94h2.52a3.388 3.388 0 1 1 .33 6.77c-.11.01-.22.01-.33 0h-2.52V4.94zm2.52 5.73c1.23.06 2.27-.89 2.33-2.12v-.22a2.195 2.195 0 0 0-2.32-2.34h-1.33v4.68h1.32z"/><path id="Path_77" class="st0" d="M24.29 8.33a3.407 3.407 0 0 1 3.31-3.5h.19c1.13-.04 2.2.54 2.77 1.52l-1.02.52c-.37-.62-1.04-.99-1.76-.99a2.458 2.458 0 0 0-2.31 2.59 2.445 2.445 0 0 0 2.31 2.31c.72.01 1.39-.37 1.76-.99l1.02.52c-.58.98-1.64 1.56-2.77 1.52a3.398 3.398 0 0 1-3.5-3.3v-.2z"/><path id="Path_78" class="st0" d="m33.11 8.86-.59.69v2.16h-1.19V4.94h1.19v3.23l2.65-3.23h1.47l-2.75 3.2 2.96 3.58h-1.46l-2.28-2.86z"/><path id="Path_79" class="st0" d="M42.15 10.41h-3.21l-.5 1.3h-1.3l2.66-6.78h1.48l2.66 6.78h-1.3l-.49-1.3zm-2.88-1.04h2.54l-1.27-3.42-1.27 3.42z"/><path id="Path_80" class="st0" d="M44.49 4.94h2.98a2.123 2.123 0 0 1 .18 4.24h-1.97v2.53h-1.19V4.94zm2.81 1.04h-1.62v2.15h1.62c.59.04 1.11-.41 1.15-1 .04-.59-.41-1.11-1-1.15h-.15z"/></g></g><g id="Group_4953" transform="translate(58.023)"><path id="Path_81" class="st0" d="M9.99 13.54h.04c2.4 0 4.35-1.95 4.35-4.35s-1.95-4.35-4.35-4.35H10c-2.4 0-4.36 1.95-4.36 4.35 0 2.39 1.95 4.34 4.35 4.35z"/><path id="Path_82" class="st0" d="M13.12 38.02c-.52-2.11-.78-4.27-.79-6.45-.07-4 .8-7.96 2.54-11.56l.61-1.11.19-.4c.06-.14.09-.29.1-.44 0-.59-.47-1.07-1.05-1.09H5.33c-.59.02-1.05.5-1.05 1.09 0 .15.03.3.1.44l.19.4.61 1.11c1.74 3.6 2.61 7.56 2.54 11.56-.01 2.17-.27 4.34-.79 6.45a8.591 8.591 0 0 1-2.8 4.48v2.16h11.79V42.5a8.468 8.468 0 0 1-2.8-4.48z"/></g><path id="Path_83" class="st0" d="M31.32 16.89c.85-1.16 1.7-2.32 2.61-3.42.22-.27.46-.55.7-.83.26-.3.52-.6.8-.88s.57-.54.88-.78c.16-.12.31-.23.48-.33a2.567 2.567 0 0 1 .94-.39c.39-.07.78-.11 1.18-.13.33-.02.67-.03 1-.03.24 0 .48 0 .72.01V7.73h-8.1c-.28.02-.55.04-.82.08-1.02.2-1.99.62-2.83 1.23-.2.14-.38.28-.56.44-.32.26-.63.55-.96.87-.91.93-1.72 1.93-2.45 3.01l-8.93 12.81h-.01l.01.01-.01.01h.01L24.9 39c.72 1.08 1.54 2.08 2.45 3.01.32.32.64.61.96.87.19.16.38.31.56.44.84.61 1.81 1.03 2.83 1.23.27.04.55.06.82.08h8.1v-2.38c-.24 0-.48.01-.72.01-.33 0-.67-.01-1-.03-.39-.01-.79-.06-1.18-.13a3.31 3.31 0 0 1-.42-.12 2.86 2.86 0 0 1-.52-.27c-.17-.1-.32-.21-.48-.33-.31-.24-.61-.5-.88-.78-.28-.28-.54-.57-.8-.88-.24-.28-.47-.56-.7-.83-.91-1.1-1.76-2.27-2.61-3.42 0 0-1.15-1.57-1.95-2.65-1.96-2.67-4.79-6.51-4.88-6.64.09-.12 2.92-3.97 4.88-6.64l1.96-2.65z"/></g></g></svg>