<svg xmlns="http://www.w3.org/2000/svg" viewBox="0 0 30 30" style="enable-background:new 0 0 30 30" xml:space="preserve"><path d="M27.46.42H2.61C1.44.38.46 1.29.42 2.46v25c0 1.17.95 2.12 2.12 2.12h24.92c1.17 0 2.12-.95 2.12-2.12V2.54c0-1.17-.95-2.12-2.12-2.12zM9.12 25.27H4.73V11.38h4.39v13.89zM6.92 9.48a2.556 2.556 0 0 1-2.48-2.56 2.49 2.49 0 0 1 4.98 0 2.573 2.573 0 0 1-2.5 2.56zm18.35 15.79h-4.31v-6.8c0-1.61 0-3.65-2.27-3.65s-2.56 1.75-2.56 3.58v6.87h-4.32V11.38h4.1v1.9h.07a4.517 4.517 0 0 1 4.09-2.26c4.39 0 5.19 2.85 5.19 6.65v7.6z" style="fill:#6a98be"/></svg>