<?xml version="1.0" encoding="UTF-8"?>
<svg xmlns="http://www.w3.org/2000/svg" xmlns:xlink="http://www.w3.org/1999/xlink" xmlns:svgjs="http://svgjs.com/svgjs" version="1.1" width="512" height="512" x="0" y="0" viewBox="0 0 32 32" style="enable-background:new 0 0 512 512" xml:space="preserve" class="">
  <g>
    <g data-name="file sharing">
      <path d="M11 18H3a3.003 3.003 0 0 1-3-3V3a3.003 3.003 0 0 1 3-3h7.042a1 1 0 0 1 .711.298l2.959 3A1 1 0 0 1 14 4v11a3.003 3.003 0 0 1-3 3ZM3 2a1 1 0 0 0-1 1v12a1 1 0 0 0 1 1h8a1 1 0 0 0 1-1V4.41L9.623 2Z" fill="#8798a8" data-original="#000000" class=""></path>
      <path d="M13 5h-3a1 1 0 0 1-1-1V1a1 1 0 0 1 2 0v2h2a1 1 0 0 1 0 2ZM9 9H5a1 1 0 0 1 0-2h4a1 1 0 0 1 0 2ZM9 13H5a1 1 0 0 1 0-2h4a1 1 0 0 1 0 2ZM29 32h-8a3.003 3.003 0 0 1-3-3V17a3.003 3.003 0 0 1 3-3h7.042a1 1 0 0 1 .711.298l2.959 3A1 1 0 0 1 32 18v11a3.003 3.003 0 0 1-3 3Zm-8-16a1 1 0 0 0-1 1v12a1 1 0 0 0 1 1h8a1 1 0 0 0 1-1V18.41L27.623 16Z" fill="#8798a8" data-original="#000000" class=""></path>
      <path d="M31 19h-3a1 1 0 0 1-1-1v-3a1 1 0 0 1 2 0v2h2a1 1 0 0 1 0 2ZM27 23h-4a1 1 0 0 1 0-2h4a1 1 0 0 1 0 2ZM27 27h-4a1 1 0 0 1 0-2h4a1 1 0 0 1 0 2ZM25 11a1 1 0 0 1-1-1V6a1 1 0 0 0-1-1h-6a1 1 0 0 1 0-2h6a3.003 3.003 0 0 1 3 3v4a1 1 0 0 1-1 1Z" fill="#8798a8" data-original="#000000" class=""></path>
      <path d="M25 12a.997.997 0 0 1-.707-.293l-2-2a1 1 0 0 1 1.414-1.414L25 9.586l1.293-1.293a1 1 0 0 1 1.414 1.414l-2 2A.997.997 0 0 1 25 12ZM15 29H9a3.003 3.003 0 0 1-3-3v-4a1 1 0 0 1 2 0v4a1 1 0 0 0 1 1h6a1 1 0 0 1 0 2Z" fill="#8798a8" data-original="#000000" class=""></path>
      <path d="M9 24a.997.997 0 0 1-.707-.293L7 22.414l-1.293 1.293a1 1 0 0 1-1.414-1.414l2-2a1 1 0 0 1 1.414 0l2 2A1 1 0 0 1 9 24Z" fill="#8798a8" data-original="#000000" class=""></path>
    </g>
  </g>
</svg>
